<svg width="16" height="16" viewBox="0 0 16 16" fill="none" xmlns="http://www.w3.org/2000/svg">
<path d="M10.4816 7.96876e-05C9.60997 -0.00849647 8.80842 0.676103 8.50045 1.60052C8.18998 0.668048 7.37695 -0.0194337 6.49643 0.00112128C6.0141 0.0124057 5.51166 0.235976 5.05997 0.74874C4.69383 1.16428 4.48976 1.71337 4.28087 2.2678C3.80205 3.04868 3.16152 3.6313 2.23293 3.8606C2.45638 4.08192 2.69994 4.19705 2.95614 4.24472C2.50311 4.51652 1.88412 4.66673 1 4.61902C1.65528 5.53313 2.68043 5.84406 3.75417 5.81801C5.6923 5.73677 6.67331 4.66089 7.24757 3.56547L7.76527 3.88664C7.11449 5.12807 5.87712 6.36967 3.70233 6.45928V6.48428C3.70233 6.69494 3.74446 6.94955 3.81999 7.23725L3.81201 7.221L4.75369 11.2096L4.90132 9.86846C5.44702 10.9608 6.1038 12.1181 6.7059 13.1312L6.75774 11.5296C6.94384 12.8669 7.41787 14.0791 8.00465 15.2438C8.30269 15.7128 8.49145 16 8.49145 16C8.49145 16 8.71339 15.6634 9.06204 15.1125C9.06427 15.109 9.06689 15.1051 9.06906 15.1016C9.73175 13.9621 10.2839 12.7664 10.5514 11.4244L10.5175 12.7243C10.8157 12.2151 11.1215 11.6796 11.4163 11.1391V12.1275L12.7101 8.51214C13.0254 7.76268 13.2372 7.10378 13.2737 6.62532C11.1761 6.35043 9.72389 5.17189 9.0501 3.88668L9.56786 3.56551C10.1968 4.7652 11.6919 5.95884 13.983 6.03287C14.4645 6.02245 14.9376 5.90707 15.4383 5.64007C14.9652 5.64417 14.5612 5.60257 14.2084 5.52073C14.9535 5.3424 15.5994 4.93759 16 4.20236C12.7268 4.94054 13.1161 2.08367 11.94 0.748706C11.4813 0.228094 10.9705 0.00483652 10.4816 4.49853e-05L10.4816 7.96876e-05Z" fill="white"/>
</svg>
