<svg width="16" height="16" viewBox="0 0 16 16" fill="none" xmlns="http://www.w3.org/2000/svg">
<path d="M8 13.3334C11.3137 13.3334 14 10 14 10C14 10 11.3137 6.66669 8 6.66669C4.68633 6.66669 2 10 2 10C2 10 4.68633 13.3334 8 13.3334Z" stroke="white" stroke-width="2" stroke-linejoin="round"/>
<path d="M7.99997 11.3333C8.35359 11.3333 8.69273 11.1929 8.94278 10.9428C9.19283 10.6928 9.3333 10.3536 9.3333 10C9.3333 9.64638 9.19283 9.30724 8.94278 9.05719C8.69273 8.80714 8.35359 8.66667 7.99997 8.66667C7.64635 8.66667 7.30721 8.80714 7.05716 9.05719C6.80711 9.30724 6.66664 9.64638 6.66664 10C6.66664 10.3536 6.80711 10.6928 7.05716 10.9428C7.30721 11.1929 7.64635 11.3333 7.99997 11.3333ZM9.3333 2C6.99997 2 3.33331 3.16667 2.3333 4C1.3333 4.83333 1.99997 6.33333 2.66664 6C3.33331 5.66667 7.7333 4.06667 9.3333 3.66667C10.9333 3.26667 13.2223 3.94433 14 4.33333C13.2223 3.66667 11.6666 2 9.3333 2Z" stroke="white" stroke-width="2" stroke-linejoin="round"/>
</svg>
