<svg width="16" height="16" viewBox="0 0 16 16" fill="none" xmlns="http://www.w3.org/2000/svg">
<path d="M4.66663 8.66665C4.66663 7.78259 5.01782 6.93474 5.64294 6.30962C6.26806 5.6845 7.1159 5.33331 7.99996 5.33331C8.88401 5.33331 9.73186 5.6845 10.357 6.30962C10.9821 6.93474 11.3333 7.78259 11.3333 8.66665V12C11.3333 13.2573 11.3333 13.8853 10.9426 14.276C10.552 14.6666 9.92396 14.6666 8.66663 14.6666H7.33329C6.07596 14.6666 5.44796 14.6666 5.05729 14.276C4.66663 13.8853 4.66663 13.2573 4.66663 12V8.66665Z" stroke="white" stroke-width="1.5" stroke-linecap="round" stroke-linejoin="round"/>
<path d="M6.66663 5.33331V4.66665C6.66663 4.03798 6.66663 3.72398 6.86196 3.52865C7.05729 3.33331 7.37129 3.33331 7.99996 3.33331M7.99996 3.33331C8.62863 3.33331 8.94263 3.33331 9.13796 3.52865C9.33329 3.72398 9.33329 4.03798 9.33329 4.66665V5.33331M7.99996 3.33331V1.33331M7.99996 1.33331H6.66663M7.99996 1.33331H9.82996C10.3347 1.33344 10.8208 1.52444 11.1906 1.86798L11.3333 1.99998M4.66663 8.66665H11.3333" stroke="white" stroke-width="1.5" stroke-linecap="round" stroke-linejoin="round"/>
</svg>
