<svg width="16" height="16" viewBox="0 0 16 16" fill="none" xmlns="http://www.w3.org/2000/svg">
<g clip-path="url(#clip0_312_53)">
<path fill-rule="evenodd" clip-rule="evenodd" d="M10.4607 -1.57151L10.3918 -1.63816C10.1507 -1.87059 9.83223 -2 9.5013 -2C9.17037 -2 8.8519 -1.87059 8.6108 -1.63816L8.6082 -1.63683L8.6043 -1.63283L8.5913 -1.6195L8.5419 -1.57151L8.3651 -1.39556C7.48428 -0.511272 6.65763 0.428029 5.8899 1.41696C5.2139 2.28604 4.5119 3.29642 3.9659 4.33612C3.4394 5.34783 3 6.52215 3 7.66849C3 11.2408 5.99 14 9.5 14C13.01 14 16 11.2408 16 7.66849C16 6.51282 15.5606 5.34916 15.0341 4.33612C14.4946 3.30042 13.7926 2.2967 13.1101 1.41696C12.5202 0.666531 11.9 -0.0583348 11.2511 -0.755749C11.0486 -0.971971 10.8432 -1.18526 10.6349 -1.39556L10.4581 -1.57151H10.4607ZM9.5026 -0.666441C9.5026 -0.666441 4.3026 4.33212 4.3026 7.66449C4.3026 10.4237 6.6296 12.6631 9.5026 12.6631V-0.666441Z" fill="white"/>
</g>
<defs>
<clipPath id="clip0_312_53">
<rect width="16" height="16" fill="white"/>
</clipPath>
</defs>
</svg>
